<svg id="Layer_1" data-name="Layer 1" xmlns="http://www.w3.org/2000/svg" viewBox="0 0 113.8 86.12"><defs><style>.cls-1{fill:#231f20;}</style></defs><path class="cls-1" d="M0,80.86,21.49,2.62h5.07L5.13,80.86Z"/><polygon class="cls-1" points="78.8 20.36 61.83 20.36 75.04 7.15 71.08 3.19 58.44 15.83 58.44 0 52.84 0 52.84 15.83 40.2 3.19 36.24 7.15 49.45 20.36 32.49 20.36 32.49 25.95 48.32 25.95 36.24 38.03 40.2 41.99 52.84 29.34 52.84 46.31 58.44 46.31 58.44 29.34 71.08 41.99 75.04 38.03 62.97 25.95 78.8 25.95 78.8 20.36"/><path class="cls-1" d="M42.09,71.05H39.52v9.09h-5V57.26h7.59c5.11,0,8.37,2.44,8.37,6.73S47.26,71.05,42.09,71.05Zm0-9.56H39.52v5.33h2.57c2.26,0,3.35-.88,3.35-2.73S44.31,61.49,42.09,61.49Z"/><path class="cls-1" d="M60.52,80.14H53.59V57.26h6.93c6.52,0,11.91,4,11.91,11.4C72.43,76.22,66.6,80.14,60.52,80.14Zm0-18.65H58.61V75.9h1.91c4.26,0,6.74-3.38,6.74-7.24S64.53,61.49,60.52,61.49Z"/><path class="cls-1" d="M88.73,80.14,87,74.37H80l-1.78,5.77h-5.3l8.18-22.88h4.83l8.3,22.88ZM84,64.56c-.22-.72-.48-1.63-.51-1.82,0,.09-.25,1-.47,1.82l-1.72,5.58h4.39Z"/><path class="cls-1" d="M104.65,71.05h-2.57v9.09h-5V57.26h7.59c5.11,0,8.37,2.44,8.37,6.73S109.82,71.05,104.65,71.05Zm0-9.56h-2.57v5.33h2.57c2.26,0,3.35-.88,3.35-2.73S106.87,61.49,104.65,61.49Z"/></svg>