<?xml version="1.0" encoding="utf-8"?>
<!-- Generator: Adobe Illustrator 24.0.0, SVG Export Plug-In . SVG Version: 6.00 Build 0)  -->
<svg version="1.1" id="Layer_1" xmlns="http://www.w3.org/2000/svg" xmlns:xlink="http://www.w3.org/1999/xlink" x="0px" y="0px"
	 viewBox="0 0 113.8 86.1" style="enable-background:new 0 0 113.8 86.1;" xml:space="preserve">
<path d="M0,80.9L21.5,2.6h5.1L5.1,80.9H0z"/>
<polygon points="78.8,20.4 61.8,20.4 75,7.2 71.1,3.2 58.4,15.8 58.4,0 52.8,0 52.8,15.8 40.2,3.2 36.2,7.2 49.5,20.4 32.5,20.4 
	32.5,26 48.3,26 36.2,38 40.2,42 52.8,29.3 52.8,46.3 58.4,46.3 58.4,29.3 71.1,42 75,38 63,26 78.8,26 "/>
<path d="M42.1,71.1h-2.6v9.1h-5V57.3h7.6c5.1,0,8.4,2.4,8.4,6.7S47.3,71.1,42.1,71.1z M42.1,61.5h-2.6v5.3h2.6
	c2.3,0,3.3-0.9,3.3-2.7S44.3,61.5,42.1,61.5z"/>
<path d="M60.5,80.1h-6.9V57.3h6.9c6.5,0,11.9,4,11.9,11.4C72.4,76.2,66.6,80.1,60.5,80.1z M60.5,61.5h-1.9v14.4h1.9
	c4.3,0,6.7-3.4,6.7-7.2S64.5,61.5,60.5,61.5z"/>
<path d="M88.7,80.1L87,74.4h-7l-1.8,5.8h-5.3l8.2-22.9h4.8l8.3,22.9h-5.5V80.1z M84,64.6c-0.2-0.7-0.5-1.6-0.5-1.8
	c0,0.1-0.2,1-0.5,1.8l-1.7,5.6h4.4L84,64.6z"/>
<path d="M104.7,71.1h-2.6v9.1h-5V57.3h7.6c5.1,0,8.4,2.4,8.4,6.7S109.8,71.1,104.7,71.1z M104.7,61.5h-2.6v5.3h2.6
	c2.3,0,3.3-0.9,3.3-2.7S106.9,61.5,104.7,61.5z"/>
</svg>
