<svg id="Layer_1" data-name="Layer 1" xmlns="http://www.w3.org/2000/svg" viewBox="0 0 509.39 111.68"><defs><style>.cls-1{fill:#231f20;}</style></defs><path class="cls-1" d="M0,100.77,26.81,3.16h9.33L9.4,100.77Z"/><path class="cls-1" d="M123.25,27h-4.68V43.58h-9.14V1.87h13.82c9.31,0,15.25,4.46,15.25,12.29S132.68,27,123.25,27Zm0-17.42h-4.68V19.3h4.68c4.11,0,6.11-1.6,6.11-5S127.31,9.59,123.25,9.59Z"/><path class="cls-1" d="M151.42,44.26a13,13,0,1,1-.06-26c7.2,0,13.31,5.43,13.31,12.91A13.26,13.26,0,0,1,151.42,44.26Zm-.06-19c-3,0-4.63,3.14-4.63,5.94s1.6,6,4.69,6S156,34,156,31.18,154.56,25.3,151.36,25.3Z"/><path class="cls-1" d="M169,43.58V1.87h8.86V43.58Z"/><path class="cls-1" d="M183.52,15V6.84h8.86V15Zm0,28.62V19h8.86V43.58Z"/><path class="cls-1" d="M210.2,44.26c-7.77,0-13.54-5.59-13.54-12.91,0-7.14,5.66-13.08,13.54-13.08a12.18,12.18,0,0,1,10,4.57l-5.09,4.74a6.51,6.51,0,0,0-4.91-2.28c-3.14,0-5.31,2.57-5.31,6.05,0,3,2.11,5.94,5.31,5.94,2.28,0,3.49-.91,4.86-2.51L221,39C218,42.66,215,44.26,210.2,44.26Z"/><path class="cls-1" d="M236.88,44.26c-7.2,0-13.83-3.82-13.83-13.19,0-8.23,5.49-12.8,12.4-12.8,7.83,0,13.14,5.54,13.14,14.51H231.34c.28,2.86,2,5.2,5.54,5.2,3.83,0,6.11-.86,8.22-2.63l3.78,4.8A17.54,17.54,0,0,1,236.88,44.26ZM235.34,24c-2.52,0-3.49,1.77-4,4.12h8.12C239.28,25.58,237.68,24,235.34,24Z"/><path class="cls-1" d="M280.18,43.58H267.56V1.87h12.62c11.88,0,21.71,7.32,21.71,20.8C301.89,36.44,291.27,43.58,280.18,43.58Zm0-34H276.7V35.87h3.48c7.77,0,12.28-6.17,12.28-13.2C292.46,15.36,287.49,9.59,280.18,9.59Z"/><path class="cls-1" d="M322.11,43.58V41.69c-2.68,1.89-4.22,2.57-8.51,2.57-4.74,0-8.91-3-8.91-7.65,0-7.66,9.43-9.14,17.42-9.48v-.86c0-1.71-1.14-2.29-3.65-2.29a18.64,18.64,0,0,0-8.8,2.12l-2.74-5.32c3.26-1.82,7.37-2.51,11.82-2.51,8.17,0,12.23,2.63,12.23,9.66V43.58Zm0-11.48c-3.76,0-8,.85-8,3.59,0,1.43,1.43,2.29,2.85,2.29a7,7,0,0,0,5.14-1.77Z"/><path class="cls-1" d="M345.94,43.58c-5,0-8.23-3.83-8.23-9v-9h-3.08V19h3.08V8.73h8.86V19h4.17v6.57h-4.17V33c0,1.89,1,3.2,2.74,3.2h2.17v7.43Z"/><path class="cls-1" d="M372.22,43.58V41.69c-2.69,1.89-4.23,2.57-8.52,2.57-4.74,0-8.91-3-8.91-7.65,0-7.66,9.43-9.14,17.43-9.48v-.86c0-1.71-1.15-2.29-3.66-2.29a18.64,18.64,0,0,0-8.8,2.12L357,20.78c3.26-1.82,7.37-2.51,11.83-2.51,8.17,0,12.22,2.63,12.22,9.66V43.58Zm0-11.48c-3.77,0-8,.85-8,3.59,0,1.43,1.43,2.29,2.86,2.29a7.06,7.06,0,0,0,5.14-1.77Z"/><path class="cls-1" d="M56.42,100.77l-3.2-10.51H40.54l-3.26,10.51H27.62l14.91-41.7h8.8l15.14,41.7ZM47.85,72.38c-.4-1.31-.86-3-.92-3.31,0,.17-.45,1.88-.85,3.31L42.94,82.55h8Z"/><path class="cls-1" d="M81.56,101.46c-7.77,0-13.54-5.6-13.54-12.91,0-7.14,5.65-13.08,13.54-13.08a12.13,12.13,0,0,1,10,4.57l-5.08,4.74a6.52,6.52,0,0,0-4.91-2.29c-3.15,0-5.32,2.57-5.32,6.06,0,3,2.12,5.94,5.32,5.94,2.28,0,3.48-.92,4.85-2.51l5.94,4.17C89.38,99.86,86.35,101.46,81.56,101.46Z"/><path class="cls-1" d="M108,101.46c-7.77,0-13.54-5.6-13.54-12.91,0-7.14,5.65-13.08,13.54-13.08A12.15,12.15,0,0,1,118,80l-5.09,4.74A6.5,6.5,0,0,0,108,82.49c-3.14,0-5.31,2.57-5.31,6.06,0,3,2.11,5.94,5.31,5.94,2.28,0,3.48-.92,4.85-2.51l6,4.17C115.77,99.86,112.75,101.46,108,101.46Z"/><path class="cls-1" d="M134.63,101.46c-7.2,0-13.83-3.83-13.83-13.2,0-8.22,5.49-12.79,12.4-12.79C141,75.47,146.34,81,146.34,90H129.09c.28,2.85,2,5.19,5.54,5.19,3.82,0,6.11-.85,8.22-2.62l3.77,4.8A17.57,17.57,0,0,1,134.63,101.46Zm-1.55-20.28c-2.51,0-3.48,1.77-3.94,4.11h8.11C137,82.78,135.43,81.18,133.08,81.18Z"/><path class="cls-1" d="M160,101.46c-3.83,0-8-.92-10.62-2.8l2.85-5.6a12.59,12.59,0,0,0,6.46,2.11c1.88,0,2.85-.57,2.85-1.37,0-1.31-1.54-1.94-3.48-2.62-3.31-1.26-7.83-2.75-7.83-8.17,0-4.92,4.23-7.54,10.29-7.54a16.67,16.67,0,0,1,9,2.28L167,83.23a12.8,12.8,0,0,0-6.28-1.59c-1.37,0-2.69.22-2.69,1.31,0,.86,2,1.48,4.4,2.4,3.6,1.31,8,3.43,8,8.28C170.39,99.29,165.36,101.46,160,101.46Z"/><path class="cls-1" d="M183.13,101.46c-3.83,0-8-.92-10.63-2.8l2.86-5.6a12.56,12.56,0,0,0,6.46,2.11c1.88,0,2.85-.57,2.85-1.37,0-1.31-1.54-1.94-3.48-2.62-3.32-1.26-7.83-2.75-7.83-8.17,0-4.92,4.23-7.54,10.28-7.54a16.63,16.63,0,0,1,9,2.28l-2.51,5.48a12.8,12.8,0,0,0-6.28-1.59c-1.38,0-2.69.22-2.69,1.31,0,.86,2,1.48,4.4,2.4,3.6,1.31,8,3.43,8,8.28C193.53,99.29,188.5,101.46,183.13,101.46Z"/><path class="cls-1" d="M197.81,72.15V64h8.86v8.11Zm0,28.62V76.15h8.86v24.62Z"/><path class="cls-1" d="M228.66,101.46c-3,0-6.06-1.26-7.43-3.2v2.51h-8.85V59.07h8.85V78.66c1.37-1.94,4.46-3.19,7.43-3.19,6.91,0,11.54,6.28,11.54,13C240.2,95.4,235.57,101.46,228.66,101.46Zm-2.34-18.74c-3,0-5.09,2.34-5.09,5.66s2,5.82,5.09,5.82c2.91,0,5-2.45,5-5.82S229.23,82.72,226.32,82.72Z"/><path class="cls-1" d="M244.48,72.15V64h8.86v8.11Zm0,28.62V76.15h8.86v24.62Z"/><path class="cls-1" d="M259.05,100.77V59.07h8.86v41.7Z"/><path class="cls-1" d="M273.62,72.15V64h8.85v8.11Zm0,28.62V76.15h8.85v24.62Z"/><path class="cls-1" d="M297.61,100.77c-5,0-8.22-3.82-8.22-9v-9H286.3V76.15h3.09V65.92h8.85V76.15h4.17v6.57h-4.17v7.43c0,1.88,1,3.2,2.74,3.2h2.17v7.42Z"/><path class="cls-1" d="M321.61,106.26c-1.15,3.25-3.2,5.42-7,5.42h-5.14v-7.25h1.88c1.72,0,3.37-1,3.37-2.46a9.5,9.5,0,0,0-.68-3.42l-8.46-22.4h9.32l3.37,11.2c.45,1.43.8,3.08.8,3.08s.4-1.6.8-3.08l2.91-11.2H332Z"/><path class="cls-1" d="M362.05,84.21h-4.68v16.56h-9.14V59.07h13.82c9.32,0,15.26,4.45,15.26,12.28S371.48,84.21,362.05,84.21Zm0-17.43h-4.68v9.71h4.68c4.12,0,6.12-1.6,6.12-5S366.11,66.78,362.05,66.78Z"/><path class="cls-1" d="M395.76,85.29a5.81,5.81,0,0,0-3.94-1.54c-2.86,0-4.06,2.28-4.06,4.91v12.11h-8.85V76.15h8.85v3.26a7.59,7.59,0,0,1,6.4-3.94,7.9,7.9,0,0,1,5.94,2.34Z"/><path class="cls-1" d="M412.84,101.46a13,13,0,1,1,0-26c7.19,0,13.31,5.42,13.31,12.91A13.27,13.27,0,0,1,412.84,101.46Zm0-19c-3,0-4.63,3.14-4.63,5.94s1.6,6,4.68,6,4.63-3.2,4.63-6.05S416,82.49,412.79,82.49Z"/><path class="cls-1" d="M430.61,111h-5.37v-7.43h2.17c1.2,0,1.54-1.08,1.54-2.8V76.15h8.86V103.4C437.81,108,435.35,111,430.61,111ZM429,72.15V64h8.86v8.11Z"/><path class="cls-1" d="M454.49,101.46c-7.2,0-13.82-3.83-13.82-13.2,0-8.22,5.48-12.79,12.39-12.79,7.83,0,13.14,5.54,13.14,14.51H449c.28,2.85,2.06,5.19,5.54,5.19,3.83,0,6.11-.85,8.23-2.62l3.77,4.8A17.59,17.59,0,0,1,454.49,101.46ZM453,81.18c-2.52,0-3.49,1.77-3.94,4.11h8.11C456.89,82.78,455.29,81.18,453,81.18Z"/><path class="cls-1" d="M481.57,101.46c-7.77,0-13.54-5.6-13.54-12.91,0-7.14,5.66-13.08,13.54-13.08a12.15,12.15,0,0,1,10,4.57l-5.09,4.74a6.5,6.5,0,0,0-4.91-2.29c-3.14,0-5.31,2.57-5.31,6.06,0,3,2.11,5.94,5.31,5.94,2.28,0,3.48-.92,4.86-2.51l5.94,4.17C489.4,99.86,486.37,101.46,481.57,101.46Z"/><path class="cls-1" d="M503.85,100.77c-5,0-8.23-3.82-8.23-9v-9h-3.08V76.15h3.08V65.92h8.86V76.15h4.17v6.57h-4.17v7.43c0,1.88,1,3.2,2.74,3.2h2.17v7.42Z"/><polygon points="91.74 20.24 76.23 20.24 88.45 8.02 83.14 2.7 71.5 14.34 71.5 0 63.98 0 63.98 14.34 52.34 2.7 47.02 8.02 59.25 20.24 43.73 20.24 43.73 27.77 58.07 27.77 47.02 38.82 52.34 44.13 63.98 32.49 63.98 48.01 71.5 48.01 71.5 32.49 83.14 44.13 88.45 38.82 77.4 27.77 91.74 27.77 91.74 20.24"/></svg>