<?xml version="1.0" encoding="utf-8"?>
<!-- Generator: Adobe Illustrator 24.0.0, SVG Export Plug-In . SVG Version: 6.00 Build 0)  -->
<svg version="1.1" id="Layer_1" xmlns="http://www.w3.org/2000/svg" xmlns:xlink="http://www.w3.org/1999/xlink" x="0px" y="0px"
	 viewBox="0 0 509.4 111.7" style="enable-background:new 0 0 509.4 111.7;" xml:space="preserve">
<path d="M0,100.8L26.8,3.2h9.3L9.4,100.8H0z"/>
<path d="M123.2,27h-4.7v16.6h-9.1V1.9h13.8c9.3,0,15.2,4.5,15.2,12.3S132.7,27,123.2,27z M123.2,9.6h-4.7v9.7h4.7
	c4.1,0,6.1-1.6,6.1-5S127.3,9.6,123.2,9.6L123.2,9.6z"/>
<path d="M151.4,44.3c-7.2,0-13-5.8-13-13s5.8-13,13-13s13.3,5.4,13.3,12.9C164.6,38.4,158.7,44.3,151.4,44.3z M151.4,25.3
	c-3,0-4.6,3.1-4.6,5.9s1.6,6,4.7,6s4.6-3.2,4.6-6S154.6,25.3,151.4,25.3L151.4,25.3z"/>
<path d="M169,43.6V1.9h8.9v41.7C177.9,43.6,169,43.6,169,43.6z"/>
<path d="M183.5,15V6.8h8.9V15H183.5z M183.5,43.6V19h8.9v24.6H183.5z"/>
<path d="M210.2,44.3c-7.8,0-13.5-5.6-13.5-12.9c0-7.1,5.7-13.1,13.5-13.1c3.9-0.2,7.6,1.5,10,4.6l-5.1,4.7c-1.2-1.4-3-2.3-4.9-2.3
	c-3.1,0-5.3,2.6-5.3,6.1c0,3,2.1,5.9,5.3,5.9c2.3,0,3.5-0.9,4.9-2.5L221,39C218,42.7,215,44.3,210.2,44.3z"/>
<path d="M236.9,44.3c-7.2,0-13.8-3.8-13.8-13.2c0-8.2,5.5-12.8,12.4-12.8c7.8,0,13.1,5.5,13.1,14.5h-17.2c0.3,2.9,2,5.2,5.5,5.2
	c3.8,0,6.1-0.9,8.2-2.6l3.8,4.8C245.5,43,241.3,44.4,236.9,44.3z M235.3,24c-2.5,0-3.5,1.8-4,4.1h8.1C239.3,25.6,237.7,24,235.3,24z
	"/>
<path d="M280.2,43.6h-12.6V1.9h12.6c11.9,0,21.7,7.3,21.7,20.8C301.9,36.4,291.3,43.6,280.2,43.6z M280.2,9.6h-3.5v26.3h3.5
	c7.8,0,12.3-6.2,12.3-13.2C292.5,15.4,287.5,9.6,280.2,9.6L280.2,9.6z"/>
<path d="M322.1,43.6v-1.9c-2.7,1.9-4.2,2.6-8.5,2.6c-4.7,0-8.9-3-8.9-7.7c0-7.7,9.4-9.1,17.4-9.5v-0.9c0-1.7-1.1-2.3-3.6-2.3
	c-3.1,0-6.1,0.7-8.8,2.1l-2.7-5.3c3.3-1.8,7.4-2.5,11.8-2.5c8.2,0,12.2,2.6,12.2,9.7v15.7H322.1z M322.1,32.1c-3.8,0-8,0.8-8,3.6
	c0,1.4,1.4,2.3,2.9,2.3c1.9,0.1,3.7-0.5,5.1-1.8V32.1z"/>
<path d="M345.9,43.6c-5,0-8.2-3.8-8.2-9v-9h-3.1V19h3.1V8.7h8.9V19h4.2v6.6h-4.2V33c0,1.9,1,3.2,2.7,3.2h2.2v7.4L345.9,43.6z"/>
<path d="M372.2,43.6v-1.9c-2.7,1.9-4.2,2.6-8.5,2.6c-4.7,0-8.9-3-8.9-7.7c0-7.7,9.4-9.1,17.4-9.5v-0.9c0-1.7-1.1-2.3-3.7-2.3
	c-3.1,0-6.1,0.7-8.8,2.1l-2.8-5.3c3.3-1.8,7.4-2.5,11.8-2.5c8.2,0,12.2,2.6,12.2,9.7v15.7H372.2z M372.2,32.1c-3.8,0-8,0.8-8,3.6
	c0,1.4,1.4,2.3,2.9,2.3c1.9,0.1,3.7-0.5,5.1-1.8V32.1z"/>
<path d="M56.4,100.8l-3.2-10.5H40.5l-3.3,10.5h-9.7l14.9-41.7h8.8l15.1,41.7H56.4z M47.8,72.4c-0.4-1.3-0.9-3-0.9-3.3
	c0,0.2-0.5,1.9-0.8,3.3L43,82.6h8L47.8,72.4z"/>
<path d="M81.6,101.5c-7.8,0-13.5-5.6-13.5-12.9c0-7.1,5.7-13.1,13.5-13.1c3.9-0.2,7.6,1.5,10,4.6l-5.1,4.7c-1.2-1.4-3-2.3-4.9-2.3
	c-3.2,0-5.3,2.6-5.3,6.1c0,3,2.1,5.9,5.3,5.9c2.3,0,3.5-0.9,4.8-2.5l5.9,4.2C89.4,99.9,86.3,101.5,81.6,101.5z"/>
<path d="M108,101.5c-7.8,0-13.5-5.6-13.5-12.9c0-7.1,5.7-13.1,13.5-13.1c3.9-0.2,7.6,1.5,10,4.5l-5.1,4.7c-1.2-1.4-3-2.2-4.9-2.2
	c-3.1,0-5.3,2.6-5.3,6.1c0,3,2.1,5.9,5.3,5.9c2.3,0,3.5-0.9,4.8-2.5l6,4.2C115.8,99.9,112.8,101.5,108,101.5z"/>
<path d="M134.6,101.5c-7.2,0-13.8-3.8-13.8-13.2c0-8.2,5.5-12.8,12.4-12.8c7.8,0,13.1,5.5,13.1,14.5h-17.2c0.3,2.8,2,5.2,5.5,5.2
	c3.8,0,6.1-0.8,8.2-2.6l3.8,4.8C143.3,100.2,139,101.6,134.6,101.5z M133.1,81.2c-2.5,0-3.5,1.8-3.9,4.1h8.1
	C137,82.8,135.4,81.2,133.1,81.2z"/>
<path d="M160,101.5c-3.8,0-8-0.9-10.6-2.8l2.9-5.6c1.9,1.3,4.2,2,6.5,2.1c1.9,0,2.9-0.6,2.9-1.4c0-1.3-1.5-1.9-3.5-2.6
	c-3.3-1.3-7.8-2.8-7.8-8.2c0-4.9,4.2-7.5,10.3-7.5c3.2-0.1,6.3,0.7,9,2.3l-2.5,5.5c-1.9-1.1-4.1-1.6-6.3-1.6c-1.4,0-2.7,0.2-2.7,1.3
	c0,0.9,2,1.5,4.4,2.4c3.6,1.3,8,3.4,8,8.3C170.4,99.3,165.4,101.5,160,101.5z"/>
<path d="M183.1,101.5c-3.8,0-8-0.9-10.6-2.8l2.9-5.6c1.9,1.3,4.2,2,6.5,2.1c1.9,0,2.9-0.6,2.9-1.4c0-1.3-1.5-1.9-3.5-2.6
	c-3.3-1.3-7.8-2.8-7.8-8.2c0-4.9,4.2-7.5,10.3-7.5c3.2-0.1,6.3,0.7,9,2.3l-2.5,5.5c-1.9-1.1-4.1-1.6-6.3-1.6c-1.4,0-2.7,0.2-2.7,1.3
	c0,0.9,2,1.5,4.4,2.4c3.6,1.3,8,3.4,8,8.3C193.5,99.3,188.5,101.5,183.1,101.5z"/>
<path d="M197.8,72.2V64h8.9v8.1L197.8,72.2z M197.8,100.8V76.2h8.9v24.6C206.7,100.8,197.8,100.8,197.8,100.8z"/>
<path d="M228.7,101.5c-3,0-6.1-1.3-7.4-3.2v2.5h-8.9V59.1h8.9v19.6c1.4-1.9,4.5-3.2,7.4-3.2c6.9,0,11.5,6.3,11.5,13
	C240.2,95.4,235.6,101.5,228.7,101.5z M226.3,82.7c-3,0-5.1,2.3-5.1,5.7s2,5.8,5.1,5.8c2.9,0,5-2.4,5-5.8S229.2,82.7,226.3,82.7z"/>
<path d="M244.5,72.2V64h8.9v8.1L244.5,72.2z M244.5,100.8V76.2h8.9v24.6C253.4,100.8,244.5,100.8,244.5,100.8z"/>
<path d="M259,100.8V59.1h8.9v41.7H259z"/>
<path d="M273.6,72.2V64h8.9v8.1L273.6,72.2z M273.6,100.8V76.2h8.9v24.6C282.5,100.8,273.6,100.8,273.6,100.8z"/>
<path d="M297.6,100.8c-5,0-8.2-3.8-8.2-9v-9h-3.1v-6.6h3.1V65.9h8.9v10.2h4.2v6.6h-4.2v7.4c0,1.9,1,3.2,2.7,3.2h2.2v7.4h-5.6V100.8z
	"/>
<path d="M321.6,106.3c-1.1,3.2-3.2,5.4-7,5.4h-5.1v-7.2h1.9c1.7,0,3.4-1,3.4-2.5c0-1.2-0.2-2.3-0.7-3.4l-8.5-22.4h9.3l3.4,11.2
	c0.5,1.4,0.8,3.1,0.8,3.1s0.4-1.6,0.8-3.1l2.9-11.2h9.2L321.6,106.3z"/>
<path d="M362,84.2h-4.7v16.6h-9.1V59.1H362c9.3,0,15.3,4.5,15.3,12.3S371.5,84.2,362,84.2z M362,66.8h-4.7v9.7h4.7
	c4.1,0,6.1-1.6,6.1-5S366.1,66.8,362,66.8z"/>
<path d="M395.8,85.3c-1.1-1-2.5-1.5-3.9-1.5c-2.9,0-4.1,2.3-4.1,4.9v12.1h-8.9V76.2h8.9v3.3c1.3-2.4,3.7-3.8,6.4-3.9
	c2.2-0.1,4.4,0.8,5.9,2.3L395.8,85.3z"/>
<path d="M412.8,101.5c-7.2,0-13-5.8-13-13s5.8-13,13-13s13.3,5.4,13.3,12.9C426.1,95.6,420.1,101.5,412.8,101.5z M412.8,82.5
	c-3,0-4.6,3.1-4.6,5.9s1.6,6,4.7,6s4.6-3.2,4.6-6.1S416,82.5,412.8,82.5L412.8,82.5z"/>
<path d="M430.6,111h-5.4v-7.4h2.2c1.2,0,1.5-1.1,1.5-2.8V76.2h8.9v27.2C437.8,108,435.4,111,430.6,111z M429,72.2V64h8.9v8.1
	L429,72.2z"/>
<path d="M454.5,101.5c-7.2,0-13.8-3.8-13.8-13.2c0-8.2,5.5-12.8,12.4-12.8c7.8,0,13.1,5.5,13.1,14.5H449c0.3,2.8,2.1,5.2,5.5,5.2
	c3.8,0,6.1-0.8,8.2-2.6l3.8,4.8C463.2,100.2,458.9,101.6,454.5,101.5z M453,81.2c-2.5,0-3.5,1.8-3.9,4.1h8.1
	C456.9,82.8,455.3,81.2,453,81.2z"/>
<path d="M481.6,101.5c-7.8,0-13.5-5.6-13.5-12.9c0-7.1,5.7-13.1,13.5-13.1c3.9-0.2,7.6,1.5,10,4.6l-5.1,4.7c-1.2-1.4-3-2.3-4.9-2.3
	c-3.1,0-5.3,2.6-5.3,6.1c0,3,2.1,5.9,5.3,5.9c2.3,0,3.5-0.9,4.9-2.5l5.9,4.2C489.4,99.9,486.4,101.5,481.6,101.5z"/>
<path d="M503.9,100.8c-5,0-8.2-3.8-8.2-9v-9h-3.1v-6.6h3.1V65.9h8.9v10.2h4.2v6.6h-4.2v7.4c0,1.9,1,3.2,2.7,3.2h2.2v7.4h-5.6V100.8z
	"/>
<polygon points="91.7,20.2 76.2,20.2 88.4,8 83.1,2.7 71.5,14.3 71.5,0 64,0 64,14.3 52.3,2.7 47,8 59.2,20.2 43.7,20.2 43.7,27.8 
	58.1,27.8 47,38.8 52.3,44.1 64,32.5 64,48 71.5,48 71.5,32.5 83.1,44.1 88.4,38.8 77.4,27.8 91.7,27.8 "/>
</svg>
